<svg xmlns="http://www.w3.org/2000/svg" width="328.06" height="163.19" viewBox="0 0 328.06 163.19">
  <title>logo</title>
  <g>
    <g>
      <g>
        <path d="M29.52,72.08,25.89,87.52,30,89.66V93.3H14.21V89.66l4-2.26C23.75,64.17,30,36.8,35.8,13.71H48L66.06,87l4,2.63V93.3H49.61v-3l3.9-2.64L49.86,72.08Zm10-43.94C37.18,37.93,33.92,52.24,31,65.3h17.2L39.7,28.14Z" style="fill: #54636b"/>
        <path d="M123.31,36.05H111V33.92c0-7-2-12.8-9.91-12.8-4.9,0-9.92,3.26-9.92,13.18V73.46c0,9.42,3.76,13.3,10.17,13.3,8,0,10.3-4.64,10.3-12.42V70.07h12.43v4.4c0,14.06-9.92,20.09-22.6,20.09S78.86,88,78.86,73.46V34.29c0-13.56,8.42-21,21.85-21,4.64,0,9.66.88,13.18,4.27h.25l1-3.77h8.16Z" style="fill: #54636b"/>
        <path d="M147.78,86.52l4.52,3.14V93.3H134.85V89.66l4.52-3.14V20.61l-4.27-3.14V14.08h16.45c5.4,0,7.29.5,8.54,5.53,4,22.22,6.28,36.65,8.54,58.75h.25L178.42,19c.87-4.39,2.38-4.89,6.77-4.89h17.2v3.39l-4.27,3.14V86.39l4.77,3.52V93.3H181.18V89.91l4.77-3.52V22.24h-.38L173.64,92.42h-9.92c-2.51,0-3.64-1-4-3.27-3.51-22.47-6.9-43.69-10.92-66h-1.63l.63,14.31Z" style="fill: #54636b"/>
      </g>
      <g>
        <path d="M84.61,122.71a2.75,2.75,0,0,0,1-.18,2.46,2.46,0,0,0,.82-.5,2.13,2.13,0,0,0,.56-.8,2.66,2.66,0,0,0,.21-1,2.93,2.93,0,0,0-.73-2,6.83,6.83,0,0,0-1.81-1.43,9.63,9.63,0,0,1-2.42-1.88,3.62,3.62,0,0,1-.87-2.49,4,4,0,0,1,.3-1.58,3.13,3.13,0,0,1,.86-1.19,4,4,0,0,1,1.32-.75,4.88,4.88,0,0,1,1.66-.27,7.63,7.63,0,0,1,.79,0,5.56,5.56,0,0,1,.67.1,6.44,6.44,0,0,1,.65.17l.73.21v.9h-3a2.43,2.43,0,0,0-1.82.63,2.1,2.1,0,0,0-.62,1.52,2.89,2.89,0,0,0,.13.92,2.34,2.34,0,0,0,.44.77,3.89,3.89,0,0,0,.8.73c.33.24.73.5,1.21.79a12.29,12.29,0,0,1,1.37.92,5.57,5.57,0,0,1,1,1,4,4,0,0,1,.64,1.2,4.6,4.6,0,0,1,.23,1.52,4.42,4.42,0,0,1-.31,1.68,3.91,3.91,0,0,1-.88,1.31,4.07,4.07,0,0,1-1.36.85,4.84,4.84,0,0,1-1.74.3c-.35,0-.65,0-.92,0a7.28,7.28,0,0,1-.77-.1c-.25,0-.49-.1-.75-.17l-.87-.21v-.9Z" style="fill: #54636b"/>
        <path d="M96.15,108.57a4.68,4.68,0,0,1,2.42.56,4,4,0,0,1,1.48,1.57,7.37,7.37,0,0,1,.74,2.44,22.92,22.92,0,0,1,.2,3.15,23.61,23.61,0,0,1-.2,3.2,7.79,7.79,0,0,1-.73,2.47,4,4,0,0,1-1.47,1.6,4.6,4.6,0,0,1-2.42.57,5,5,0,0,1-2.51-.57,4.1,4.1,0,0,1-1.55-1.6,7.38,7.38,0,0,1-.77-2.47,22.35,22.35,0,0,1-.22-3.2,21.69,21.69,0,0,1,.22-3.15,7.21,7.21,0,0,1,.76-2.44,4,4,0,0,1,1.52-1.57A5,5,0,0,1,96.15,108.57Zm0,1.3a2.78,2.78,0,0,0-1.82.55,3.35,3.35,0,0,0-1,1.45,7.66,7.66,0,0,0-.44,2c-.07.77-.1,1.56-.1,2.37s0,1.63.1,2.41a7.92,7.92,0,0,0,.44,2.09,3.32,3.32,0,0,0,1,1.47,2.81,2.81,0,0,0,1.82.55,2.57,2.57,0,0,0,1.75-.55,3.43,3.43,0,0,0,1-1.47,8.07,8.07,0,0,0,.4-2.09c.05-.78.08-1.59.08-2.41s0-1.6-.08-2.37a7.8,7.8,0,0,0-.4-2,3.46,3.46,0,0,0-1-1.45A2.54,2.54,0,0,0,96.15,109.87Z" style="fill: #54636b"/>
        <path d="M111.53,122.71v.9A11.11,11.11,0,0,1,110,124a9.39,9.39,0,0,1-1.64.14,4.35,4.35,0,0,1-2.32-.59,4.44,4.44,0,0,1-1.54-1.64,8.27,8.27,0,0,1-.85-2.45,15.52,15.52,0,0,1-.27-3,10.65,10.65,0,0,1,1.35-5.89,4.43,4.43,0,0,1,3.92-2,10,10,0,0,1,1.65.13,11.92,11.92,0,0,1,1.56.38v.9h-3.28a2.83,2.83,0,0,0-1.71.5,3.54,3.54,0,0,0-1.09,1.37,7.29,7.29,0,0,0-.57,2,16.77,16.77,0,0,0-.17,2.44,19.26,19.26,0,0,0,.15,2.42,7.83,7.83,0,0,0,.51,2.05,3.51,3.51,0,0,0,1,1.41,2.53,2.53,0,0,0,1.66.52Z" style="fill: #54636b"/>
        <path d="M116.24,123.94h-1.61v-15.2h1.61Z" style="fill: #54636b"/>
        <path d="M126.62,110.09h-5.06v5.16h4.35l-.23,1.37h-4.12v6h5.38v1.37h-7v-15.2h6.68Z" style="fill: #54636b"/>
        <path d="M133.36,108.74a7.24,7.24,0,0,1,2.8.47,4.25,4.25,0,0,1,1.81,1.39,5.86,5.86,0,0,1,1,2.29,15.32,15.32,0,0,1,.29,3.16,16.9,16.9,0,0,1-.31,3.39,6.39,6.39,0,0,1-1,2.47,4.57,4.57,0,0,1-1.9,1.51,7.27,7.27,0,0,1-2.92.51h-3.25v-15.2Zm-.06,13.9a4.37,4.37,0,0,0,2-.43,3.22,3.22,0,0,0,1.32-1.24,5.89,5.89,0,0,0,.71-2,15.45,15.45,0,0,0,.21-2.77,17.08,17.08,0,0,0-.17-2.54,5.48,5.48,0,0,0-.61-1.93,3.15,3.15,0,0,0-1.25-1.23,4.25,4.25,0,0,0-2.07-.44h-2v12.59Z" style="fill: #54636b"/>
        <path d="M147.24,108.7l4.35,15.24h-1.68l-1.24-4.55H144l-1.25,4.55h-1.62l4.4-15.24Zm1.1,9.37-2-7.58h0l-2,7.58Z" style="fill: #54636b"/>
        <path d="M157.79,108.74a7.28,7.28,0,0,1,2.8.47,4.25,4.25,0,0,1,1.81,1.39,5.88,5.88,0,0,1,1,2.29,15.33,15.33,0,0,1,.29,3.16,17.12,17.12,0,0,1-.31,3.39,6.4,6.4,0,0,1-1,2.47,4.6,4.6,0,0,1-1.9,1.51,7.3,7.3,0,0,1-2.93.51h-3.25v-15.2Zm-.07,13.9a4.36,4.36,0,0,0,2-.43,3.24,3.24,0,0,0,1.33-1.24,5.93,5.93,0,0,0,.7-2,15.66,15.66,0,0,0,.21-2.77,17.41,17.41,0,0,0-.17-2.54,5.53,5.53,0,0,0-.62-1.93,3.12,3.12,0,0,0-1.24-1.23,4.27,4.27,0,0,0-2.08-.44h-2v12.59Z" style="fill: #54636b"/>
        <path d="M173.37,110.09h-5.06v5.16h4.35l-.23,1.37h-4.12v6h5.38v1.37h-7v-15.2h6.67Z" style="fill: #54636b"/>
        <path d="M185.22,108.74a7.3,7.3,0,0,1,2.8.47,4.25,4.25,0,0,1,1.8,1.39,5.88,5.88,0,0,1,1,2.29,15.33,15.33,0,0,1,.29,3.16,16.69,16.69,0,0,1-.3,3.39,6.43,6.43,0,0,1-1,2.47,4.58,4.58,0,0,1-1.89,1.51,7.29,7.29,0,0,1-2.92.51h-3.25v-15.2Zm-.07,13.9a4.38,4.38,0,0,0,2-.43,3.23,3.23,0,0,0,1.33-1.24,5.92,5.92,0,0,0,.7-2,15.83,15.83,0,0,0,.22-2.77,18.46,18.46,0,0,0-.16-2.54,5.57,5.57,0,0,0-.62-1.93,3.1,3.1,0,0,0-1.24-1.23,4.27,4.27,0,0,0-2.08-.44h-2v12.59Z" style="fill: #54636b"/>
        <path d="M200.79,110.09h-5.07v5.16h4.35l-.23,1.37h-4.13v6h5.38v1.37h-7v-15.2h6.69Z" style="fill: #54636b"/>
        <path d="M210.72,117v6.9h-1.62v-15.2h3.61a4.58,4.58,0,0,1,3.13.91,3.83,3.83,0,0,1,1,3,5.11,5.11,0,0,1-.49,2.4,3,3,0,0,1-1.74,1.39v0a1.77,1.77,0,0,1,.65.48,2.69,2.69,0,0,1,.43.74,8,8,0,0,1,.33,1.05c.11.4.23.88.36,1.44l1,3.76H215.7l-1-4.1c-.12-.48-.24-.89-.35-1.24a3.2,3.2,0,0,0-.42-.87,1.48,1.48,0,0,0-.61-.52,2.32,2.32,0,0,0-1-.17Zm0-1.3h1.95a2.36,2.36,0,0,0,2-.76,3.56,3.56,0,0,0,.58-2.2,6.05,6.05,0,0,0-.11-1.21,1.78,1.78,0,0,0-.41-.85,1.88,1.88,0,0,0-.8-.5,4.19,4.19,0,0,0-1.29-.17h-1.91Z" style="fill: #54636b"/>
        <path d="M226.86,110.09h-5.06v5.16h4.35l-.23,1.37h-4.13v6h5.39v1.37h-7v-15.2h6.68Z" style="fill: #54636b"/>
        <path d="M230.58,108.74l3.39,13h0l3.41-13h1.66L234.71,124h-1.57l-4.28-15.24Z" style="fill: #54636b"/>
        <path d="M243.16,123.94h-1.61v-15.2h1.61Z" style="fill: #54636b"/>
        <path d="M249.64,122.71a2.75,2.75,0,0,0,1-.18,2.52,2.52,0,0,0,.82-.5,2.31,2.31,0,0,0,.56-.8,2.66,2.66,0,0,0,.2-1,2.93,2.93,0,0,0-.73-2,6.87,6.87,0,0,0-1.81-1.43,9.62,9.62,0,0,1-2.42-1.88,3.59,3.59,0,0,1-.87-2.49,4,4,0,0,1,.3-1.58,3.13,3.13,0,0,1,.86-1.19,4.08,4.08,0,0,1,1.32-.75,4.93,4.93,0,0,1,1.66-.27,7.59,7.59,0,0,1,.79,0,5.62,5.62,0,0,1,.67.1,6.4,6.4,0,0,1,.65.17l.74.21v.9h-3a2.42,2.42,0,0,0-1.81.63,2.09,2.09,0,0,0-.63,1.52,2.88,2.88,0,0,0,.13.92,2.33,2.33,0,0,0,.44.77,4,4,0,0,0,.79.73c.33.24.73.5,1.21.79a12.58,12.58,0,0,1,1.37.92,5.62,5.62,0,0,1,1,1,4.14,4.14,0,0,1,.64,1.2,4.61,4.61,0,0,1,.23,1.52,4.4,4.4,0,0,1-.31,1.68,3.9,3.9,0,0,1-.88,1.31,4,4,0,0,1-1.36.85,4.82,4.82,0,0,1-1.75.3c-.34,0-.65,0-.92,0a7.06,7.06,0,0,1-.78-.1c-.25,0-.49-.1-.75-.17l-.87-.21v-.9Z" style="fill: #54636b"/>
        <path d="M261.18,108.57a4.69,4.69,0,0,1,2.42.56,4,4,0,0,1,1.48,1.57,7.41,7.41,0,0,1,.74,2.44,22.09,22.09,0,0,1,.2,3.15,22.76,22.76,0,0,1-.2,3.2,7.89,7.89,0,0,1-.73,2.47,3.93,3.93,0,0,1-1.47,1.6,4.58,4.58,0,0,1-2.42.57,4.93,4.93,0,0,1-2.51-.57,4.08,4.08,0,0,1-1.55-1.6,7.49,7.49,0,0,1-.77-2.47,22.37,22.37,0,0,1-.21-3.2,21.71,21.71,0,0,1,.21-3.15,7.36,7.36,0,0,1,.76-2.44,4,4,0,0,1,1.53-1.57A5,5,0,0,1,261.18,108.57Zm0,1.3a2.78,2.78,0,0,0-1.82.55,3.39,3.39,0,0,0-1,1.45,7.75,7.75,0,0,0-.43,2c-.07.77-.1,1.56-.1,2.37s0,1.63.1,2.41a8,8,0,0,0,.43,2.09,3.36,3.36,0,0,0,1,1.47,2.82,2.82,0,0,0,1.82.55,2.59,2.59,0,0,0,1.75-.55,3.41,3.41,0,0,0,1-1.47,7.66,7.66,0,0,0,.4-2.09c.06-.78.08-1.59.08-2.41s0-1.6-.08-2.37a7.39,7.39,0,0,0-.4-2,3.44,3.44,0,0,0-1-1.45A2.56,2.56,0,0,0,261.18,109.87Z" style="fill: #54636b"/>
        <path d="M270.67,117v6.9h-1.61v-15.2h3.6a4.58,4.58,0,0,1,3.13.91,3.82,3.82,0,0,1,1,3,5.13,5.13,0,0,1-.49,2.4,3,3,0,0,1-1.73,1.39v0a1.81,1.81,0,0,1,.65.48,2.64,2.64,0,0,1,.43.74,9.3,9.3,0,0,1,.33,1.05c.11.4.22.88.36,1.44l1,3.76h-1.68l-1-4.1c-.12-.48-.23-.89-.35-1.24a3.09,3.09,0,0,0-.42-.87,1.48,1.48,0,0,0-.61-.52,2.29,2.29,0,0,0-1-.17Zm0-1.3h2a2.36,2.36,0,0,0,2-.76,3.51,3.51,0,0,0,.58-2.2,5.91,5.91,0,0,0-.11-1.21,1.78,1.78,0,0,0-.41-.85,1.83,1.83,0,0,0-.81-.5,4.13,4.13,0,0,0-1.29-.17h-1.91Z" style="fill: #54636b"/>
        <path d="M286.81,110.09h-5.07v5.16h4.35l-.23,1.37h-4.13v6h5.38v1.37h-7v-15.2h6.68Z" style="fill: #54636b"/>
        <path d="M292.81,122.71a2.73,2.73,0,0,0,1-.18,2.51,2.51,0,0,0,.82-.5,2.19,2.19,0,0,0,.56-.8,2.59,2.59,0,0,0,.2-1,3,3,0,0,0-.73-2,6.94,6.94,0,0,0-1.81-1.43,9.56,9.56,0,0,1-2.42-1.88,3.6,3.6,0,0,1-.87-2.49,4.06,4.06,0,0,1,.3-1.58,3.2,3.2,0,0,1,.87-1.19,4.11,4.11,0,0,1,1.32-.75,4.92,4.92,0,0,1,1.66-.27,7.64,7.64,0,0,1,.79,0,5.62,5.62,0,0,1,.68.1,6.51,6.51,0,0,1,.65.17l.73.21v.9h-3a2.43,2.43,0,0,0-1.82.63,2.1,2.1,0,0,0-.63,1.52,2.82,2.82,0,0,0,.13.92,2.42,2.42,0,0,0,.44.77,4,4,0,0,0,.8.73c.33.24.73.5,1.21.79a12.68,12.68,0,0,1,1.36.92,5.41,5.41,0,0,1,1,1,4,4,0,0,1,.64,1.2A4.69,4.69,0,0,1,297,120a4.37,4.37,0,0,1-.31,1.68,3.79,3.79,0,0,1-.88,1.31,4,4,0,0,1-1.36.85,4.86,4.86,0,0,1-1.75.3c-.34,0-.65,0-.92,0a7.26,7.26,0,0,1-.78-.1c-.25,0-.5-.1-.75-.17l-.87-.21v-.9Z" style="fill: #54636b"/>
        <path d="M135.67,135.46a4.65,4.65,0,0,1,2.42.56,4,4,0,0,1,1.48,1.57,7.48,7.48,0,0,1,.74,2.43,22.51,22.51,0,0,1,.2,3.15,23.12,23.12,0,0,1-.2,3.19,8,8,0,0,1-.73,2.48,3.91,3.91,0,0,1-1.47,1.6,4.6,4.6,0,0,1-2.42.57,4.93,4.93,0,0,1-2.51-.57,4,4,0,0,1-1.55-1.6,7.31,7.31,0,0,1-.77-2.48,21.93,21.93,0,0,1-.22-3.19,21.36,21.36,0,0,1,.22-3.15,7.14,7.14,0,0,1,.76-2.43,4,4,0,0,1,1.52-1.57A5,5,0,0,1,135.67,135.46Zm0,1.3a2.85,2.85,0,0,0-1.82.54,3.42,3.42,0,0,0-1,1.45,7.79,7.79,0,0,0-.44,2.05c-.07.76-.11,1.55-.11,2.36s0,1.63.11,2.41a8.22,8.22,0,0,0,.44,2.1,3.35,3.35,0,0,0,1,1.46,2.81,2.81,0,0,0,1.82.55,2.57,2.57,0,0,0,1.75-.55,3.34,3.34,0,0,0,1-1.46,7.76,7.76,0,0,0,.4-2.1q.08-1.18.08-2.41c0-.81,0-1.6-.08-2.36a7.37,7.37,0,0,0-.4-2.05,3.41,3.41,0,0,0-1-1.45A2.6,2.6,0,0,0,135.67,136.77Z" style="fill: #54636b"/>
        <path d="M150.17,137h-5v5.36h4.28l-.23,1.34h-4.06v7.15h-1.61v-15.2h6.63Z" style="fill: #54636b"/>
        <path d="M154.59,150.85H153v-15.2h1.61Z" style="fill: #54636b"/>
        <path d="M165.8,149.62v.89a10.55,10.55,0,0,1-1.56.38,10.06,10.06,0,0,1-1.65.13,4.3,4.3,0,0,1-2.32-.59,4.39,4.39,0,0,1-1.53-1.64,8,8,0,0,1-.85-2.45,16.09,16.09,0,0,1-.26-3,10.6,10.6,0,0,1,1.34-5.88,4.44,4.44,0,0,1,3.92-2,9.4,9.4,0,0,1,1.65.14,10.71,10.71,0,0,1,1.56.38v.9h-3.28a2.83,2.83,0,0,0-1.71.5,3.45,3.45,0,0,0-1.08,1.37,7.13,7.13,0,0,0-.58,2,16.59,16.59,0,0,0-.17,2.43,20.14,20.14,0,0,0,.14,2.42,8.11,8.11,0,0,0,.52,2.06,3.55,3.55,0,0,0,1,1.41,2.54,2.54,0,0,0,1.66.53Z" style="fill: #54636b"/>
        <path d="M170.51,150.85h-1.61v-15.2h1.61Z" style="fill: #54636b"/>
        <path d="M179.18,135.6l4.35,15.24h-1.68l-1.23-4.55H176l-1.25,4.55h-1.62l4.39-15.24Zm1.09,9.37-2-7.58h0l-2,7.58Z" style="fill: #54636b"/>
        <path d="M187.84,150.85h-1.62v-15.2h1.62Z" style="fill: #54636b"/>
        <path d="M194.31,149.62a2.68,2.68,0,0,0,1.82-.69,2.25,2.25,0,0,0,.56-.8,2.65,2.65,0,0,0,.2-1.05,2.94,2.94,0,0,0-.73-2,7,7,0,0,0-1.8-1.42,9.61,9.61,0,0,1-2.43-1.89,3.59,3.59,0,0,1-.87-2.48,4,4,0,0,1,.3-1.58,3.19,3.19,0,0,1,.87-1.19,4.07,4.07,0,0,1,1.32-.75,4.92,4.92,0,0,1,1.66-.27,7.82,7.82,0,0,1,.8,0,6.16,6.16,0,0,1,.67.1,6.71,6.71,0,0,1,.65.17l.72.22v.9h-3a2.41,2.41,0,0,0-1.81.64,2.1,2.1,0,0,0-.63,1.51,2.83,2.83,0,0,0,.14.92,2.48,2.48,0,0,0,.44.77,4.11,4.11,0,0,0,.79.73c.33.24.73.5,1.21.78a12.26,12.26,0,0,1,1.37.92,5.49,5.49,0,0,1,1,1,4.21,4.21,0,0,1,.64,1.2,4.72,4.72,0,0,1,.22,1.51,4.26,4.26,0,0,1-.31,1.68,3.71,3.71,0,0,1-.88,1.31,3.85,3.85,0,0,1-1.36.85,4.73,4.73,0,0,1-1.75.3q-.52,0-.92,0t-.77-.1c-.25,0-.5-.1-.75-.17l-.87-.21v-.89Z" style="fill: #54636b"/>
        <path d="M210.12,135.65a7.29,7.29,0,0,1,2.8.47,4.26,4.26,0,0,1,1.8,1.39,5.89,5.89,0,0,1,1,2.28A15.19,15.19,0,0,1,216,143a17.2,17.2,0,0,1-.3,3.38,6.5,6.5,0,0,1-1,2.48,4.5,4.5,0,0,1-1.89,1.51,7.24,7.24,0,0,1-2.93.52H206.6v-15.2Zm-.07,13.9a4.42,4.42,0,0,0,2-.43,3.27,3.27,0,0,0,1.32-1.24,5.88,5.88,0,0,0,.71-2,15.85,15.85,0,0,0,.21-2.76,17.67,17.67,0,0,0-.16-2.54,5.61,5.61,0,0,0-.62-1.93,3.18,3.18,0,0,0-1.24-1.24,4.34,4.34,0,0,0-2.08-.43h-2v12.6Z" style="fill: #54636b"/>
        <path d="M225.69,137h-5.06v5.16H225l-.23,1.37h-4.12v6H226v1.37h-7v-15.2h6.68Z" style="fill: #54636b"/>
        <path d="M241.52,149.62v.89a10.57,10.57,0,0,1-1.56.38,10.07,10.07,0,0,1-1.65.13,4.28,4.28,0,0,1-2.32-.59,4.36,4.36,0,0,1-1.54-1.64,8.24,8.24,0,0,1-.85-2.45,15.87,15.87,0,0,1-.27-3,10.64,10.64,0,0,1,1.34-5.88,4.44,4.44,0,0,1,3.92-2,9.38,9.38,0,0,1,1.64.14,10.55,10.55,0,0,1,1.56.38v.9h-3.28a2.81,2.81,0,0,0-1.71.5,3.58,3.58,0,0,0-1.09,1.37,7.36,7.36,0,0,0-.57,2,17,17,0,0,0-.17,2.43,18.79,18.79,0,0,0,.15,2.42,7.79,7.79,0,0,0,.51,2.06,3.52,3.52,0,0,0,1,1.41,2.56,2.56,0,0,0,1.66.53Z" style="fill: #54636b"/>
        <path d="M249,135.46a4.66,4.66,0,0,1,2.43.56,3.92,3.92,0,0,1,1.47,1.57,7.24,7.24,0,0,1,.74,2.43,22.82,22.82,0,0,1,.2,3.15,23.43,23.43,0,0,1-.2,3.19,7.77,7.77,0,0,1-.73,2.48,3.87,3.87,0,0,1-1.47,1.6A4.57,4.57,0,0,1,249,151a4.93,4.93,0,0,1-2.51-.57,4,4,0,0,1-1.55-1.6,7.43,7.43,0,0,1-.77-2.48,22.34,22.34,0,0,1-.21-3.19,21.75,21.75,0,0,1,.21-3.15,7.37,7.37,0,0,1,.76-2.43,4,4,0,0,1,1.52-1.57A5,5,0,0,1,249,135.46Zm0,1.3a2.85,2.85,0,0,0-1.82.54,3.38,3.38,0,0,0-1,1.45,7.51,7.51,0,0,0-.44,2.05c-.07.76-.1,1.55-.1,2.36s0,1.63.1,2.41a7.92,7.92,0,0,0,.44,2.1,3.31,3.31,0,0,0,1,1.46,2.82,2.82,0,0,0,1.82.55,2.6,2.6,0,0,0,1.75-.55,3.39,3.39,0,0,0,1-1.46,7.58,7.58,0,0,0,.4-2.1c.06-.78.09-1.59.09-2.41s0-1.6-.09-2.36a7.2,7.2,0,0,0-.4-2.05,3.46,3.46,0,0,0-1-1.45A2.63,2.63,0,0,0,249,136.77Z" style="fill: #54636b"/>
        <path d="M258.67,135.65l5.79,12.6h0l-.13-4.48v-8.12h1.45v15.25h-1.73L258.25,138h0l.09,4.48v8.36h-1.45v-15.2Z" style="fill: #54636b"/>
        <path d="M268.18,137v-1.37H277l-.22,1.37h-3.41v13.83h-1.59V137Z" style="fill: #54636b"/>
        <path d="M283,135.6l4.35,15.24h-1.68l-1.23-4.55h-4.66l-1.26,4.55H276.9l4.4-15.24ZM284.1,145l-2-7.58h0l-2,7.58Z" style="fill: #54636b"/>
        <path d="M292.81,149.62a2.69,2.69,0,0,0,1.82-.69,2.26,2.26,0,0,0,.56-.8,2.62,2.62,0,0,0,.2-1.05,3,3,0,0,0-.73-2,7.05,7.05,0,0,0-1.81-1.42,9.54,9.54,0,0,1-2.42-1.89,3.58,3.58,0,0,1-.87-2.48,4,4,0,0,1,.3-1.58,3.17,3.17,0,0,1,.87-1.19,4.11,4.11,0,0,1,1.32-.75,4.94,4.94,0,0,1,1.66-.27,7.61,7.61,0,0,1,.79,0,6,6,0,0,1,.68.1,6.41,6.41,0,0,1,.65.17l.73.22v.9h-3a2.43,2.43,0,0,0-1.82.64,2.08,2.08,0,0,0-.63,1.51,2.79,2.79,0,0,0,.13.92,2.49,2.49,0,0,0,.44.77,4.18,4.18,0,0,0,.8.73c.33.24.73.5,1.21.78a12.72,12.72,0,0,1,1.36.92,5.61,5.61,0,0,1,1,1,4,4,0,0,1,.64,1.2,4.66,4.66,0,0,1,.22,1.51,4.35,4.35,0,0,1-.31,1.68,3.73,3.73,0,0,1-.88,1.31,4,4,0,0,1-1.36.85,4.73,4.73,0,0,1-1.75.3c-.34,0-.65,0-.92,0s-.53-.06-.78-.1-.5-.1-.75-.17l-.87-.21v-.89Z" style="fill: #54636b"/>
      </g>
      <g>
        <polyline points="220.2 13.73 297.88 13.73 248.88 66.77 220.2 13.73" style="fill: #939da1"/>
        <polygon points="248.88 66.77 220.2 48.51 220.2 13.73 248.88 66.77" style="fill: #adb4b7"/>
        <polygon points="252.51 91.55 298.02 91.55 298.02 23.54 252.51 91.55" style="fill: #54636b"/>
        <polygon points="220.2 65.27 220.2 91.55 247.66 91.55 220.2 65.27" style="fill: #54636b"/>
      </g>
    </g>
    <path d="M306.71,18.71a4.83,4.83,0,0,1,.39-1.95,5,5,0,0,1,1.08-1.59,5.14,5.14,0,0,1,1.61-1.06,5.19,5.19,0,0,1,3.93,0,5.17,5.17,0,0,1,1.61,1.06,4.9,4.9,0,0,1,1.08,1.59,4.8,4.8,0,0,1,.4,1.95,4.76,4.76,0,0,1-.4,1.94,5.1,5.1,0,0,1-8.24,1.59,5.08,5.08,0,0,1-1.08-1.59A4.79,4.79,0,0,1,306.71,18.71Zm1,0a4,4,0,0,0,.32,1.6,4.19,4.19,0,0,0,2.17,2.21,3.95,3.95,0,0,0,3.18,0,4.27,4.27,0,0,0,1.29-.89,4.16,4.16,0,0,0,.87-1.31,4,4,0,0,0,.33-1.6,4.07,4.07,0,0,0-.33-1.62,4.19,4.19,0,0,0-.87-1.31,4.27,4.27,0,0,0-1.29-.89,4,4,0,0,0-3.18,0A4.19,4.19,0,0,0,308,17.09,4.08,4.08,0,0,0,307.69,18.71Zm3.46.43V22h-1.08V15.45h1.69a2.17,2.17,0,0,1,1.44.41,1.67,1.67,0,0,1,.48,1.33,2.33,2.33,0,0,1-.18,1,1.5,1.5,0,0,1-.63.66,1.09,1.09,0,0,1,.37.54q.12.35.26.92c.06.25.13.53.21.85l.22.85H312.8l-.45-1.8a3.33,3.33,0,0,0-.26-.77.49.49,0,0,0-.49-.25Zm0-.83h.61a.74.74,0,0,0,.65-.27,1.36,1.36,0,0,0,.19-.78,1.32,1.32,0,0,0-.17-.75.82.82,0,0,0-.71-.24h-.58Z" style="fill: #54636b"/>
  </g>
</svg>
